<?xml version="1.0" encoding="utf-8" ?><svg xmlns="http://www.w3.org/2000/svg" xmlns:xlink="http://www.w3.org/1999/xlink" width="427" height="377" viewBox="0 0 427 377"><path fill="#FEFEFE" d="M200.841 168.848C202.444 167.719 201.25 165.777 203.392 164.301C207.773 164.686 204.535 174.461 204.795 176.732C203.81 177.36 203.133 178.364 202.265 179.187C198.994 182.293 194.821 185.073 193.765 189.751C193.603 190.469 193.255 192.104 193.738 192.696C197.388 192.162 202.471 193.993 205.481 196.065C209.811 193.582 212.84 191.616 217.942 193.316C224.298 195.435 228.459 198.029 230.929 204.257C232.79 207.277 234.551 214.402 235.991 215.811L235.644 215.923C236.596 217.358 236.682 219.933 237.118 221.699C238.607 224.661 238.313 224.401 240.993 226.133L241.93 226.295C248.143 226.248 247.986 226.132 253.793 225.261L255.427 224.699C255.42 220.444 255.06 214.852 257.918 211.368C261.111 207.476 265.451 210.025 268.349 212.664C268.546 213.673 268.607 214.978 268.692 216.024C268.673 217.565 268.705 219.523 268.542 221.024C268.524 219.364 268.679 216.516 267.743 215.156C266.519 213.375 262.499 217.07 261.562 218.096L261.498 231.845C261.498 237.265 262.182 244.156 257.934 248.329C254.396 251.805 249.193 251.214 244.672 250.909C243.503 250.421 243 250.8 241.221 249.697L240.722 249.672L240.099 250.267C239.112 260.416 224.111 261.451 219.114 253.834C218.975 253.622 217.366 251.808 217.228 251.69C214.259 251.086 212.308 250.712 209.491 249.639C207.178 248.695 207.571 248.125 205.004 248.928C204.347 249.436 201.553 250.509 200.679 250.816C195.442 252.659 185.193 252.032 180.993 248.145L180.872 248.03C179.061 246.313 176.212 242.237 175.625 239.817L175.131 239.722C173.972 240.65 173.016 242.166 172.123 243.371C167.478 249.638 163.568 260.047 154.153 259.013C150.94 258.668 148.002 257.043 146.001 254.506C145.075 253.339 144.026 251.528 143.846 250.037C144.026 249.092 143.557 248.464 143.104 247.559C142.955 246.513 143.02 245.186 143.031 244.109C137.726 246.648 130.663 247.224 124.847 247.052C112.121 246.674 98.3552 240.283 92.6191 228.406C93.3075 227.409 91.0109 224.255 91.2171 222.901C91.8689 223.566 91.7815 223.695 92.5364 223.878C94.6404 221.822 98.9919 223.661 101.788 223.315C104.275 223.007 108.504 221.488 110.796 221.434C111.635 221.824 111.365 221.685 111.888 222.71L112.441 222.207C113.295 223.13 115.306 225.488 116.313 226.273C121.265 230.134 131.924 231.287 137.165 227.399C138.117 226.692 138.17 223.949 138.242 222.739C138.459 223.627 140.148 225.131 140.924 225.392C142.334 225.22 144.302 225.172 145.741 225.099C146.889 222.852 149.109 216.076 149.734 215.202L150.086 214.783C150.681 212.666 153.007 207.561 152.845 205.959C156.858 197.446 164.546 191.007 174.57 194.02C176.38 194.564 177.752 195.827 179.202 197.002C182.685 196.051 185.271 194.163 190.028 193.016C190.06 191.38 190.01 188.196 190.441 186.775C192.487 180.032 198.522 178.672 202.036 171.946C201.725 170.905 201.257 169.857 200.841 168.848Z"/><defs><linearGradient id="gradient_0" gradientUnits="userSpaceOnUse" x1="175.38013" y1="261.86624" x2="171.70367" y2="206.84518"><stop offset="0" stop-color="#9B53D0"/><stop offset="1" stop-color="#649CE6"/></linearGradient></defs><path fill="url(#gradient_0)" d="M227.852 206.428C228.699 205.525 228.905 205.304 229.18 204.055L229.62 203.828L229.43 203.537C229.814 203.981 229.903 204.111 230.376 204.48L230.929 204.257C232.79 207.277 234.551 214.402 235.991 215.811L235.644 215.923C236.596 217.358 236.682 219.933 237.118 221.699C238.607 224.661 238.313 224.401 240.993 226.133L241.93 226.295C248.143 226.248 247.986 226.132 253.793 225.261L255.427 224.699C255.42 220.444 255.06 214.852 257.918 211.368C261.111 207.476 265.451 210.025 268.349 212.664C268.546 213.673 268.607 214.978 268.692 216.024C268.673 217.565 268.705 219.523 268.542 221.024C268.524 219.364 268.679 216.516 267.743 215.156C266.519 213.375 262.499 217.07 261.562 218.096L261.498 231.845C261.498 237.265 262.182 244.156 257.934 248.329C254.396 251.805 249.193 251.214 244.672 250.909C243.503 250.421 243 250.8 241.221 249.697L240.722 249.672L240.099 250.267C239.112 260.416 224.111 261.451 219.114 253.834C218.975 253.622 217.366 251.808 217.228 251.69C214.259 251.086 212.308 250.712 209.491 249.639C207.178 248.695 207.571 248.125 205.004 248.928C204.347 249.436 201.553 250.509 200.679 250.816C195.442 252.659 185.193 252.032 180.993 248.145L180.872 248.03C179.061 246.313 176.212 242.237 175.625 239.817L175.131 239.722C173.972 240.65 173.016 242.166 172.123 243.371C167.478 249.638 163.568 260.047 154.153 259.013C150.94 258.668 148.002 257.043 146.001 254.506C145.075 253.339 144.026 251.528 143.846 250.037C144.026 249.092 143.557 248.464 143.104 247.559C142.955 246.513 143.02 245.186 143.031 244.109C137.726 246.648 130.663 247.224 124.847 247.052C112.121 246.674 98.3552 240.283 92.6191 228.406C93.3075 227.409 91.0109 224.255 91.2171 222.901C91.8689 223.566 91.7815 223.695 92.5364 223.878C94.6404 221.822 98.9919 223.661 101.788 223.315C104.275 223.007 108.504 221.488 110.796 221.434C111.635 221.824 111.365 221.685 111.888 222.71L112.441 222.207C113.295 223.13 115.306 225.488 116.313 226.273C121.265 230.134 131.924 231.287 137.165 227.399C138.117 226.692 138.17 223.949 138.242 222.739C138.459 223.627 140.148 225.131 140.924 225.392C142.334 225.22 144.302 225.172 145.741 225.099C146.889 222.852 149.109 216.076 149.734 215.202L150.086 214.783C150.8 214.224 150.906 214.055 151.764 213.938C152.448 214.359 152.462 214.51 152.403 215.36C152.342 216.051 151.584 217.841 151.408 218.706C151.214 219.666 150.781 220.733 150.542 221.736C148.397 230.758 144.165 241.904 147.907 250.962C148.75 253.002 150.911 255.222 153.066 255.888C163.649 258.536 166.841 239.859 174.293 236.407C178.054 234.664 186.562 235.004 190.769 235.011C195.457 235.018 203.782 234.782 208.011 235.845C216.491 237.977 218.314 252.481 226.829 255.606C228.433 256.305 230.612 256.084 232.091 255.329C233.667 254.525 236.076 252.589 236.59 250.842C240.433 237.798 233.119 217.341 227.852 206.428Z"/><path fill="#FEFEFE" d="M255.427 224.699C255.42 220.444 255.06 214.852 257.918 211.368C261.111 207.476 265.451 210.025 268.349 212.664C268.546 213.673 268.607 214.978 268.692 216.024C268.673 217.565 268.705 219.523 268.542 221.024C268.524 219.364 268.679 216.516 267.743 215.156C266.519 213.375 262.499 217.07 261.562 218.096L261.498 231.845C261.498 237.265 262.182 244.156 257.934 248.329C254.396 251.805 249.193 251.214 244.672 250.909C243.503 250.421 243 250.8 241.221 249.697L240.722 249.672L240.099 250.267C240.116 250.444 240.513 245.979 240.518 245.198C257.555 250.154 255.655 236.617 255.427 224.699Z"/><path fill="#C571BA" d="M247.575 249.467C248.478 248.888 251.564 248.327 252.936 247.445C262.439 241.295 256.087 225.014 258.74 215.554C259.728 212.03 263.968 211.248 264.98 213.351C264.221 215.134 261.422 215.561 261.562 218.096L261.498 231.845C261.498 237.265 262.182 244.156 257.934 248.329C254.396 251.805 249.193 251.214 244.672 250.909C245.939 250.728 246.615 250.295 247.575 249.467Z"/><path fill="#B08AAF" d="M241.221 249.697C242.463 248.949 245.62 249.501 247.575 249.467C246.615 250.295 245.939 250.728 244.672 250.909C243.503 250.421 243 250.8 241.221 249.697Z"/><path fill="#FEFEFE" d="M175.625 239.817C178.396 241.369 178.858 243.513 182.823 245.136C191.791 248.808 199.112 246.328 205.382 239.449C208.297 247.988 213.811 243.762 216.427 249.959C216.758 250.602 216.967 251.017 217.228 251.69C214.259 251.086 212.308 250.712 209.491 249.639C207.178 248.695 207.571 248.125 205.004 248.928C204.347 249.436 201.553 250.509 200.679 250.816C195.442 252.659 185.193 252.032 180.993 248.145L180.872 248.03C179.061 246.313 176.212 242.237 175.625 239.817Z"/><path fill="#C571BA" d="M180.993 248.145C187.123 249.396 193.698 251.279 199.54 247.924C201.493 246.802 204.299 244.278 206.038 246.105C206.358 247.537 205.935 247.919 205.004 248.928C204.347 249.436 201.553 250.509 200.679 250.816C195.442 252.659 185.193 252.032 180.993 248.145Z"/><path fill="#8682AE" d="M209.491 249.639L209.649 249.008C210.823 248.388 214.841 249.773 216.427 249.959C216.758 250.602 216.967 251.017 217.228 251.69C214.259 251.086 212.308 250.712 209.491 249.639Z"/><path fill="#93A8F0" d="M149.734 215.202C149.622 216.794 146.892 224.229 145.687 225.576C144.409 226.18 142.162 226.036 140.924 225.392C142.334 225.22 144.302 225.172 145.741 225.099C146.889 222.852 149.109 216.076 149.734 215.202Z"/><path fill="#93A8F0" d="M241.93 226.295C248.143 226.248 247.986 226.132 253.793 225.261C250.337 226.881 245.645 227.015 241.93 226.295Z"/><path fill="#93A8F0" d="M237.118 221.699C238.607 224.661 238.313 224.401 240.993 226.133C238.021 225.879 237.64 224.469 237.118 221.699Z"/><defs><linearGradient id="gradient_1" gradientUnits="userSpaceOnUse" x1="182.2" y1="169.10054" x2="191.22005" y2="213.26231"><stop offset="0" stop-color="#7587B7"/><stop offset="1" stop-color="#5FA0F0"/></linearGradient></defs><path fill="url(#gradient_1)" d="M200.841 168.848C202.444 167.719 201.25 165.777 203.392 164.301C207.773 164.686 204.535 174.461 204.795 176.732C203.81 177.36 203.133 178.364 202.265 179.187C198.994 182.293 194.821 185.073 193.765 189.751C193.603 190.469 193.255 192.104 193.738 192.696C197.388 192.162 202.471 193.993 205.481 196.065C209.811 193.582 212.84 191.616 217.942 193.316C224.298 195.435 228.459 198.029 230.929 204.257L230.376 204.48C229.903 204.111 229.814 203.981 229.43 203.537L229.62 203.828L229.18 204.055C228.905 205.304 228.699 205.525 227.852 206.428C225.328 201.826 222.501 198.88 217.315 197.318C211.141 195.46 209.409 199.917 203.233 199.992C195.16 200.09 186.562 200.714 178.504 199.766C175.527 199.415 174.173 196.978 171.141 196.861C168.405 196.756 164.856 197.638 162.542 199.04C156.891 202.464 155.18 210.119 152.403 215.36C152.462 214.51 152.448 214.359 151.764 213.938C150.906 214.055 150.8 214.224 150.086 214.783C150.681 212.666 153.007 207.561 152.845 205.959C156.858 197.446 164.546 191.007 174.57 194.02C176.38 194.564 177.752 195.827 179.202 197.002C182.685 196.051 185.271 194.163 190.028 193.016C190.06 191.38 190.01 188.196 190.441 186.775C192.487 180.032 198.522 178.672 202.036 171.946C201.725 170.905 201.257 169.857 200.841 168.848Z"/><path fill="#5BA9E4" d="M193.738 192.696C197.388 192.162 202.471 193.993 205.481 196.065L205.288 196.539C202.774 198.563 196.632 198.224 193.652 197.355C192.599 197.048 193.171 193.481 193.738 192.696Z"/><path fill="#7E7DDF" d="M169.195 207.526C175.112 207.3 174.557 210.017 174.444 214.725C177.651 214.31 184.104 214.851 180.586 220.303C179.635 221.776 176.254 221.585 174.473 221.543C174.56 224.248 175.098 227.108 172.24 228.491C171.868 228.505 171.495 228.505 171.122 228.492C166.35 228.34 167.042 225.314 167.272 221.687C165.044 221.774 162.817 222.131 160.971 220.585C159.373 219.248 159.26 217.134 160.844 215.734C162.635 214.152 164.8 214.481 166.991 214.567C166.968 211.727 166.743 209.331 169.195 207.526Z"/><path fill="#FBC439" d="M212.579 205.529C214.637 205.659 216.433 206.547 216.983 208.697C217.249 209.72 217.071 210.807 216.493 211.691C215.688 212.899 214.77 213.146 213.474 213.455C208.251 212.528 207.248 207.627 212.579 205.529Z"/><path fill="#5BA9E4" d="M203.794 213.885C205.828 213.324 207.934 214.511 208.507 216.542C209.079 218.573 207.904 220.686 205.876 221.269C203.832 221.857 201.699 220.671 201.122 218.624C200.545 216.577 201.744 214.451 203.794 213.885Z"/><path fill="#5BA9E4" d="M212.584 221.819C214.657 221.515 216.583 222.952 216.883 225.025C217.182 227.099 215.742 229.022 213.667 229.317C211.599 229.612 209.683 228.176 209.384 226.109C209.085 224.041 210.517 222.122 212.584 221.819Z"/><path fill="#C571BA" d="M220.788 214.056C226.228 214.671 226.458 219.496 221.669 221.501C220.821 221.488 220.259 221.413 219.495 220.997C218.487 220.456 217.756 219.512 217.484 218.401C217.252 217.457 217.412 216.46 217.926 215.635C218.684 214.435 219.515 214.313 220.788 214.056Z"/><defs><linearGradient id="gradient_2" gradientUnits="userSpaceOnUse" x1="78.183556" y1="103.33636" x2="80.553467" y2="181.73448"><stop offset="0" stop-color="#FEDF22"/><stop offset="1" stop-color="#FFA73E"/></linearGradient></defs><path fill="url(#gradient_2)" d="M59.4465 103.347C59.8778 103.3 60.3106 103.27 60.7441 103.255C68.1109 103.028 75.5297 103.171 83.2263 103.253C88.9396 103.313 101.102 102.153 106.04 105.763C107.701 106.977 109.125 111.786 109.055 113.895C108.715 124.169 97.9394 122.992 90.6666 122.991L73.3067 122.917C73.403 126.959 73.37 131.003 73.2078 135.043C79.0886 134.283 86.0693 134.975 92.1484 134.791C100.313 134.543 106.707 136.707 106.54 146.077C106.483 149.254 104.654 151.204 102.396 153.198C96.9099 155.951 80.0552 154.972 73.2662 154.731C73.3255 156.475 73.4722 158.568 73.4306 160.285C73.2842 166.327 74.5864 174.467 70.9004 179.598C67.7198 184.026 57.746 184.567 53.8097 181.203C48.7598 176.888 49.7337 167.756 49.7588 161.673L49.7572 145.75L49.6373 126.437C49.6085 121.746 48.8557 111.015 51.6614 106.843C53.0642 104.758 56.9286 103.612 59.4465 103.347Z"/><defs><linearGradient id="gradient_3" gradientUnits="userSpaceOnUse" x1="351.69162" y1="246.19572" x2="350.63135" y2="212.02158"><stop offset="0" stop-color="#8E66DE"/><stop offset="1" stop-color="#5CAAE5"/></linearGradient></defs><path fill="url(#gradient_3)" d="M327.576 205.012C327.889 204.275 328.807 203.012 329.318 202.376C336.61 193.276 350.397 190.702 361.162 194.13C364.032 195.044 369.185 197.933 371.081 200.339C373.979 202.8 373.31 200.777 375.765 201.333C380.011 204.502 380.673 208.252 381.958 213.127C384.133 221.381 384.614 227.732 375.297 230.498C379.025 235.375 379.559 243.54 373.889 247.258C366.487 252.11 354.823 253.594 346.297 251.408C343.915 250.962 334.879 248.185 335.321 245.304L336.138 243.205C335.868 242.487 332.003 239.347 331.077 238.294C329.184 236.14 327.622 234.253 326.514 231.522C326.603 231.311 325.021 226.884 324.871 226.153C324.143 222.596 323.957 218.092 324.631 214.574C325.015 211.058 326.677 208.31 327.576 205.012Z"/><defs><linearGradient id="gradient_4" gradientUnits="userSpaceOnUse" x1="350.58109" y1="214.49614" x2="349.51334" y2="193.14929"><stop offset="0" stop-color="#59AAE7"/><stop offset="1" stop-color="#47C4E9"/></linearGradient></defs><path fill="url(#gradient_4)" d="M327.576 205.012C327.889 204.275 328.807 203.012 329.318 202.376C336.61 193.276 350.397 190.702 361.162 194.13C364.032 195.044 369.185 197.933 371.081 200.339C371.365 201.316 372.762 202.895 373.422 203.977C374.834 206.292 375.506 207.725 376.35 210.301C376.272 210.853 376.239 210.835 376.283 211.385C374.05 212.522 367.927 212.576 365.239 212.993C363.727 213.227 360.828 214.304 359.894 214.448C356.292 214.615 345.075 215.095 341.994 214.465C341.135 214.781 336.825 213.814 335.395 213.911C332.479 214.107 327.383 213.06 324.972 214.831L324.631 214.574C325.015 211.058 326.677 208.31 327.576 205.012Z"/><path fill="#FEFEFE" d="M341.994 214.465C346.968 205.709 355.66 204.479 359.894 214.448C356.292 214.615 345.075 215.095 341.994 214.465Z"/><path fill="#93A8F0" d="M349.043 210.285C350.292 210.259 354.214 210.152 354.685 211.607L354.062 211.73C352.787 211.776 349.067 212.093 348.201 211.417C348.326 210.702 348.336 210.897 349.043 210.285Z"/><path fill="#FEFEFE" d="M371.081 200.339C373.979 202.8 373.31 200.777 375.765 201.333C380.011 204.502 380.673 208.252 381.958 213.127C384.133 221.381 384.614 227.732 375.297 230.498C379.025 235.375 379.559 243.54 373.889 247.258C366.487 252.11 354.823 253.594 346.297 251.408C343.915 250.962 334.879 248.185 335.321 245.304L336.138 243.205L336.192 242.976C336.837 242.839 340.004 244.722 341.283 245.232C349.748 248.609 376.998 247.473 371.763 232.771C370.768 230.761 368.123 228.96 365.954 229.26C355.59 230.693 348.6 237.638 342.085 225.258C347.771 225.802 353.892 225.358 359.628 225.324C363.903 225.17 368.811 225.876 372.988 224.984C379.626 223.567 377.386 214.584 376.35 210.301C375.506 207.725 374.834 206.292 373.422 203.977C372.762 202.895 371.365 201.316 371.081 200.339Z"/><path fill="#C571BA" d="M375.765 201.333C380.011 204.502 380.673 208.252 381.958 213.127C384.133 221.381 384.614 227.732 375.297 230.498C379.025 235.375 379.559 243.54 373.889 247.258C366.487 252.11 354.823 253.594 346.297 251.408C345.982 249.98 343.55 250.05 342.296 249.384L342.742 249.121C343.204 249.2 343.478 249.161 343.945 249.138C345.282 249.386 346.622 249.61 347.967 249.809C356.51 250.995 373.672 248.285 375.417 237.401C376.003 233.748 374.199 231.072 372.056 228.3C380.464 224.789 380.816 221.135 380.065 212.386C379.187 208.236 377.283 205.533 375.454 201.79L375.765 201.333Z"/><path fill="#454142" d="M375.454 201.79C377.183 203.029 381.073 210 380.561 212.021C380.379 212.18 380.24 212.364 380.065 212.386C379.187 208.236 377.283 205.533 375.454 201.79Z"/><path fill="#B08AAF" d="M335.321 245.304C339.55 247.832 340.365 247.524 343.945 249.138C343.478 249.161 343.204 249.2 342.742 249.121L342.296 249.384C343.55 250.05 345.982 249.98 346.297 251.408C343.915 250.962 334.879 248.185 335.321 245.304Z"/><path fill="#6C699E" d="M348.546 228.35C350.111 228.207 354.58 228.12 356.089 228.369L356.131 228.711C353.773 229.232 350.73 229.607 348.546 228.35Z"/><defs><linearGradient id="gradient_5" gradientUnits="userSpaceOnUse" x1="277.742" y1="226.65306" x2="278.62808" y2="192.80954"><stop offset="0" stop-color="#6498E3"/><stop offset="1" stop-color="#45C7E9"/></linearGradient></defs><path fill="url(#gradient_5)" d="M255.014 199.753C260.403 193.34 265.365 192.029 273.786 193.234C278.758 193.946 282.386 196.875 285.244 200.893C286.882 198.366 287.99 197.142 290.646 195.558C297.825 191.275 312.676 191.922 317.134 200.05C317.551 201.507 318.516 202.814 318.92 204.171C319.929 207.556 320.241 211.432 320.394 214.96C315.07 215.16 308.765 215.158 303.474 215.75C302.832 215.822 301.829 216.425 301.255 216.784L300.988 217.068C300.931 215.811 300.985 213.813 299.402 213.821C297.337 214.955 297.701 215.689 295.303 216.636L295.037 216.743C294.858 216.809 294.679 216.875 294.5 216.94C294.058 222.05 294.273 227.563 294.205 232.704C294.166 235.576 294.336 238.191 293.911 241.063C292.349 250.103 286.252 252.43 277.607 251.263C276.067 251.055 273.757 250.37 273.344 248.697C272.737 247.429 272.183 245.969 271.653 244.652C268.073 240.643 268.458 234.436 268.462 229.455C268.464 226.665 268.433 223.809 268.542 221.024C268.705 219.523 268.673 217.565 268.692 216.024C268.607 214.978 268.546 213.673 268.349 212.664C265.451 210.025 261.111 207.476 257.918 211.368C255.06 214.852 255.42 220.444 255.427 224.699L253.793 225.261C247.986 226.132 248.143 226.248 241.93 226.295L240.993 226.133C238.313 224.401 238.607 224.661 237.118 221.699C236.682 219.933 236.596 217.358 235.644 215.923L235.991 215.811C237.078 211.393 234.921 203.711 236.738 198.695C238.702 193.277 244.116 192.423 249.212 193.889C251.793 194.631 253.87 197.343 255.014 199.753Z"/><path fill="#7E7DDF" d="M288.279 215.243C288.797 213.193 289.487 211.783 291.396 210.598C292.983 209.619 294.902 209.334 296.704 209.811C298.295 210.225 299.65 211.266 300.461 212.696C301.132 213.887 301.307 215.432 301.255 216.784L300.988 217.068C300.931 215.811 300.985 213.813 299.402 213.821C297.337 214.955 297.701 215.689 295.303 216.636L295.037 216.743C294.858 216.809 294.679 216.875 294.5 216.94C294.058 222.05 294.273 227.563 294.205 232.704C294.166 235.576 294.336 238.191 293.911 241.063C292.349 250.103 286.252 252.43 277.607 251.263C276.067 251.055 273.757 250.37 273.344 248.697C272.737 247.429 272.183 245.969 271.653 244.652C268.073 240.643 268.458 234.436 268.462 229.455C268.464 226.665 268.433 223.809 268.542 221.024C268.705 219.523 268.673 217.565 268.692 216.024C269.039 215.654 269.717 214.92 270.325 214.847C275.508 214.22 281.324 214.486 286.573 214.459C286.909 214.458 288.008 215.086 288.279 215.243Z"/><path fill="#FEFEFE" d="M288.279 215.243C288.797 213.193 289.487 211.783 291.396 210.598C292.983 209.619 294.902 209.334 296.704 209.811C298.295 210.225 299.65 211.266 300.461 212.696C301.132 213.887 301.307 215.432 301.255 216.784L300.988 217.068C300.931 215.811 300.985 213.813 299.402 213.821C297.337 214.955 297.701 215.689 295.303 216.636L295.037 216.743C294.858 216.809 294.679 216.875 294.5 216.94C294.058 222.05 294.273 227.563 294.205 232.704C294.166 235.576 294.336 238.191 293.911 241.063C292.349 250.103 286.252 252.43 277.607 251.263C276.067 251.055 273.757 250.37 273.344 248.697C272.737 247.429 272.183 245.969 271.653 244.652C276.676 246.893 285.701 247.973 287.377 240.854C289.155 233.303 286.966 223.255 288.228 215.546L288.279 215.243Z"/><path fill="#C571BA" d="M273.344 248.697C276.553 249.011 280.136 249.848 283.166 248.681C296.314 243.616 288.387 224.772 291.541 214.611C292.296 212.179 297.315 211.775 297.824 213.714C297.267 214.502 295.055 215.683 294.074 216.319C293.737 218.91 293.478 239.13 293.911 241.063C292.349 250.103 286.252 252.43 277.607 251.263C276.067 251.055 273.757 250.37 273.344 248.697Z"/><defs><linearGradient id="gradient_6" gradientUnits="userSpaceOnUse" x1="217.19495" y1="121.61642" x2="215.39256" y2="182.2245"><stop offset="0" stop-color="#FED42D"/><stop offset="1" stop-color="#FFA638"/></linearGradient></defs><path fill="url(#gradient_6)" d="M217.27 155.821C219.563 148.859 222.065 141.882 224.406 134.91C225.862 131.077 227.994 124.591 231.908 122.756C236.612 120.551 244.785 121.527 247.183 126.786C250.114 133.216 245.89 139.42 243.284 145.255L236.434 160.831C234.024 166.265 231.443 174.141 228.106 178.853C223.402 185.494 208.37 185.666 204.951 177.15C204.896 177.011 204.844 176.872 204.795 176.732C204.535 174.461 207.773 164.686 203.392 164.301C201.25 165.777 202.444 167.719 200.841 168.848C198.097 163.045 195.782 157.015 193.217 151.124C190.674 145.284 188.023 139.352 186.316 133.209C184.739 127.136 189.355 122.338 195.23 121.916C200.585 121.532 205.38 123.054 207.31 128.458C210.543 137.504 214.266 146.714 217.27 155.821Z"/><defs><linearGradient id="gradient_7" gradientUnits="userSpaceOnUse" x1="133.89354" y1="122.24091" x2="135.14746" y2="182.21991"><stop offset="0" stop-color="#FED32C"/><stop offset="1" stop-color="#FFA439"/></linearGradient></defs><path fill="url(#gradient_7)" d="M133.575 130.772C134.626 129.084 135.714 127.315 137.055 125.804C141.036 121.388 149.589 120.355 154.106 124.403C157.808 127.719 157.579 136.214 154.245 139.568C152.939 141.066 151.626 141.83 149.608 141.995C146.682 141.962 143.988 143.132 142.733 142.971C140.931 143.216 138.364 144.054 137.977 146.067L138.163 146.429C139.103 145.785 140.901 144.349 141.937 144.102L142.274 143.991C144.89 143.129 147.751 143.451 150.523 143.513L150.586 143.278C153.692 142.829 155.018 139.87 157.108 140.063C157.574 140.45 157.687 140.654 157.748 141.268C157.867 142.463 157.653 143.938 156.809 144.835C152.198 149.731 140.091 139.552 139.834 159.739C139.797 162.598 140.802 173.931 139.342 175.727C138.707 176.02 138.718 175.982 138.058 175.862C137.33 175.337 137.226 174.945 136.822 174.126L136.533 174.02C136.364 174.983 136.087 175.77 136.504 176.594L137.238 177.117C135.763 177.682 133.236 182.634 131.072 183.033L130.92 182.903L130.749 182.607C129.625 182.628 128.387 183.686 126.957 183.944C125.137 184.271 123.139 183.854 121.518 184.348L121.495 184.628C122.258 185.018 122.304 185.049 123.139 185.179C123.977 185.271 124.809 185.319 125.649 185.375C122.193 186.116 118.177 184.873 115.353 182.829C114.369 182.117 112.133 180.161 111.613 179.092C112.298 178.154 111.761 177.324 113.05 175.548C111.915 171.118 112.08 131.478 113.35 127.883C114.082 125.81 116.166 123.934 118.111 123.013C120.698 121.786 124.15 121.756 126.811 122.773C130.383 124.138 132.114 127.467 133.575 130.772Z"/><defs><linearGradient id="gradient_8" gradientUnits="userSpaceOnUse" x1="154.46176" y1="158.87827" x2="136.69756" y2="156.31824"><stop offset="0" stop-color="#AC949C"/><stop offset="1" stop-color="#B388AB"/></linearGradient></defs><path fill="url(#gradient_8)" d="M150.586 143.278C153.692 142.829 155.018 139.87 157.108 140.063C157.574 140.45 157.687 140.654 157.748 141.268C157.867 142.463 157.653 143.938 156.809 144.835C152.198 149.731 140.091 139.552 139.834 159.739C139.797 162.598 140.802 173.931 139.342 175.727C138.707 176.02 138.718 175.982 138.058 175.862C137.33 175.337 137.226 174.945 136.822 174.126L136.533 174.02C136.513 173.669 136.57 173.345 136.651 173.004C138.082 167.009 135.329 151.735 138.388 147.389C141.012 143.661 146.646 144.318 150.673 143.686L150.523 143.513L150.586 143.278Z"/><path fill="#FEFEFE" d="M113.05 175.548C114.871 178.728 115.184 181.736 119.504 182.975C122.196 183.748 127.187 183.659 129.512 182.051C138.762 175.652 132.164 157.942 135.238 148.45C138.006 140.242 147.143 143.323 154.245 139.568C152.939 141.066 151.626 141.83 149.608 141.995C146.682 141.962 143.988 143.132 142.733 142.971C140.931 143.216 138.364 144.054 137.977 146.067L138.163 146.429C139.103 145.785 140.901 144.349 141.937 144.102L142.274 143.991C144.89 143.129 147.751 143.451 150.523 143.513L150.673 143.686C146.646 144.318 141.012 143.661 138.388 147.389C135.329 151.735 138.082 167.009 136.651 173.004C136.57 173.345 136.513 173.669 136.533 174.02C136.364 174.983 136.087 175.77 136.504 176.594L137.238 177.117C135.763 177.682 133.236 182.634 131.072 183.033L130.92 182.903L130.749 182.607C129.625 182.628 128.387 183.686 126.957 183.944C125.137 184.271 123.139 183.854 121.518 184.348L121.495 184.628C122.258 185.018 122.304 185.049 123.139 185.179C123.977 185.271 124.809 185.319 125.649 185.375C122.193 186.116 118.177 184.873 115.353 182.829C114.369 182.117 112.133 180.161 111.613 179.092C112.298 178.154 111.761 177.324 113.05 175.548Z"/><defs><linearGradient id="gradient_9" gradientUnits="userSpaceOnUse" x1="120.38913" y1="223.48196" x2="120.35957" y2="177.76108"><stop offset="0" stop-color="#669CE5"/><stop offset="1" stop-color="#35DDEB"/></linearGradient></defs><path fill="url(#gradient_9)" d="M137.238 177.117C139.776 177.619 144.943 179.581 146.904 181.106C149.54 182.087 150.852 182.342 153.507 183.563C157.959 185.965 158.149 194.118 155.861 198.063C150.618 207.106 139.597 201.652 132.259 198.906C128.872 198.241 127.111 198.416 123.761 199.261L123.518 198.787L123.277 197.458C117.566 196.38 116.398 198.843 112.345 201.938C109.545 206.308 109.031 211.527 110.141 216.541C110.578 218.548 111.356 220.464 112.441 222.207L111.888 222.71C111.365 221.685 111.635 221.824 110.796 221.434C108.504 221.488 104.275 223.007 101.788 223.315C98.9919 223.661 94.6404 221.822 92.5364 223.878C91.7815 223.695 91.8689 223.566 91.2171 222.901C91.0109 224.255 93.3075 227.409 92.6191 228.406C89.3998 222.262 88.7484 215.131 89.1822 208.326C89.8347 198.089 94.6093 188.378 103.204 182.54C105.446 181.017 108.78 178.863 111.613 179.092C112.133 180.161 114.369 182.117 115.353 182.829C118.177 184.873 122.193 186.116 125.649 185.375C124.809 185.319 123.977 185.271 123.139 185.179C126.979 184.98 127.714 185.243 130.92 182.903L131.072 183.033C133.236 182.634 135.763 177.682 137.238 177.117Z"/><path fill="#FEFEFE" d="M146.904 181.106C149.54 182.087 150.852 182.342 153.507 183.563C157.959 185.965 158.149 194.118 155.861 198.063C150.618 207.106 139.597 201.652 132.259 198.906C128.872 198.241 127.111 198.416 123.761 199.261L123.518 198.787L123.277 197.458C117.566 196.38 116.398 198.843 112.345 201.938C112.391 200.83 113.579 199.616 114.343 198.853C119.408 193.791 126.671 192.87 133.308 194.974C137.142 196.158 140.117 197.804 144.246 197.889C149.494 197.996 151.949 193.874 151.97 189.088C151.984 185.706 149.216 183.285 146.904 181.106Z"/><path fill="#8682AE" d="M153.507 183.563C157.959 185.965 158.149 194.118 155.861 198.063C150.618 207.106 139.597 201.652 132.259 198.906L132.141 197.931C136.895 199.285 142.73 202.411 147.539 200.325C154.606 197.26 156.077 190.125 153.507 183.563Z"/><path fill="#6C699E" d="M123.277 197.458C125.207 196.925 130.199 197.392 132.141 197.931L132.259 198.906C128.872 198.241 127.111 198.416 123.761 199.261L123.518 198.787L123.277 197.458Z"/><path fill="#FBC439" d="M162.868 180.776C159.15 176.91 159.803 165.773 159.774 160.597L159.562 146.12C159.53 141.993 159.598 132.421 160.552 128.552C162.053 122.469 174.687 119.803 178.89 124.934C181.895 128.604 182.266 132.014 182.103 136.698C182.819 137.532 183.556 137.435 184.586 137.978C185.51 138.947 186.401 140.547 186.538 141.88C187.696 147.611 186.905 155.147 187.004 161.02C187.093 166.324 187.37 171.755 186.868 177.024C186.2 182.986 182.43 187.005 176.513 188.012C174.086 188.425 170.985 188.612 168.665 187.671C167.395 187.383 163.527 185.648 163.328 184.171L163.786 183.789C164.131 182.546 163.514 181.776 162.868 180.776Z"/><path fill="#FEFEFE" d="M162.868 180.776C163.812 180.951 167.1 182.917 169.162 183.108C171.801 183.351 175.16 182.932 177.348 181.371C178.529 180.531 180.59 178.263 180.858 176.764C182.709 166.373 181.282 155.206 181.702 144.657C181.809 141.996 181.544 138.926 181.89 136.501L182.103 136.698C182.819 137.532 183.556 137.435 184.586 137.978C185.51 138.947 186.401 140.547 186.538 141.88C187.696 147.611 186.905 155.147 187.004 161.02C187.093 166.324 187.37 171.755 186.868 177.024C186.2 182.986 182.43 187.005 176.513 188.012C174.086 188.425 170.985 188.612 168.665 187.671C167.395 187.383 163.527 185.648 163.328 184.171L163.786 183.789C164.131 182.546 163.514 181.776 162.868 180.776Z"/><defs><linearGradient id="gradient_10" gradientUnits="userSpaceOnUse" x1="178.62294" y1="164.64017" x2="188.62457" y2="166.98409"><stop offset="0" stop-color="#A78787"/><stop offset="1" stop-color="#B891AA"/></linearGradient></defs><path fill="url(#gradient_10)" d="M186.538 141.88C187.696 147.611 186.905 155.147 187.004 161.02C187.093 166.324 187.37 171.755 186.868 177.024C186.2 182.986 182.43 187.005 176.513 188.012C174.086 188.425 170.985 188.612 168.665 187.671C170.868 186.881 171.531 188.411 173.288 186.266C180.55 183.909 184.348 179.772 184.268 171.726C184.174 162.223 184.511 153.043 185.01 143.574L185.744 142.679L186.016 142.738C186.305 143.405 186.312 143.488 186.228 144.211C186.348 143.454 186.438 142.645 186.538 141.88Z"/><path fill="#9E9296" d="M163.786 183.789C164.941 185.829 171.158 186.248 173.288 186.266C171.531 188.411 170.868 186.881 168.665 187.671C167.395 187.383 163.527 185.648 163.328 184.171L163.786 183.789Z"/><path fill="#EA9175" d="M185.01 143.574C184.939 142.044 184.213 139.048 184.586 137.978C185.51 138.947 186.401 140.547 186.538 141.88C186.438 142.645 186.348 143.454 186.228 144.211C186.312 143.488 186.305 143.405 186.016 142.738L185.744 142.679L185.01 143.574Z"/><path fill="#7E7DDF" d="M317.134 200.05C319.165 200.74 319.814 199.465 321.001 200.419L321.329 200.589C323.36 202.131 324.267 204.966 325.512 207.243L327.576 205.012C326.677 208.31 325.015 211.058 324.631 214.574C323.957 218.092 324.143 222.596 324.871 226.153C325.021 226.884 326.603 231.311 326.514 231.522C325.483 231.644 325.783 231.462 325.118 232.081C324.939 232.873 324.94 232.911 325.039 233.725C325.899 235.829 326.361 239.527 326.072 241.796C324.902 250.974 314.422 253.365 306.989 250.134C306.42 249.887 306.156 249.289 305.896 248.774C305.9 247.338 305.918 246.881 305.616 245.486C300.166 243.877 300.943 231.516 300.986 227.314C301.046 223.899 301.046 220.483 300.988 217.068L301.255 216.784C301.829 216.425 302.832 215.822 303.474 215.75C308.765 215.158 315.07 215.16 320.394 214.96C320.241 211.432 319.929 207.556 318.92 204.171C318.516 202.814 317.551 201.507 317.134 200.05Z"/><path fill="#FEFEFE" d="M317.134 200.05C319.165 200.74 319.814 199.465 321.001 200.419L321.329 200.589C323.36 202.131 324.267 204.966 325.512 207.243L327.576 205.012C326.677 208.31 325.015 211.058 324.631 214.574C323.957 218.092 324.143 222.596 324.871 226.153C325.021 226.884 326.603 231.311 326.514 231.522C325.483 231.644 325.783 231.462 325.118 232.081C324.939 232.873 324.94 232.911 325.039 233.725C325.899 235.829 326.361 239.527 326.072 241.796C324.902 250.974 314.422 253.365 306.989 250.134C306.42 249.887 306.156 249.289 305.896 248.774C305.9 247.338 305.918 246.881 305.616 245.486C311.495 247.188 318.814 246.92 320.355 239.406C320.989 236.316 320.675 232.029 320.618 228.794L320.394 214.96C320.241 211.432 319.929 207.556 318.92 204.171C318.516 202.814 317.551 201.507 317.134 200.05Z"/><path fill="#C571BA" d="M305.896 248.774C316.225 249.312 322.259 248.846 323.206 236.457C323.288 235.394 322.982 233.884 323.458 233.011C324.233 232.941 324.195 233.143 325.039 233.725C325.899 235.829 326.361 239.527 326.072 241.796C324.902 250.974 314.422 253.365 306.989 250.134C306.42 249.887 306.156 249.289 305.896 248.774Z"/><path fill="#42738F" d="M323.997 209.452C323.124 207.556 321.074 202.652 320.473 200.667L321.001 200.419L321.329 200.589C321.432 201.03 322.157 202.351 322.398 202.921C323.467 205.448 323.703 206.762 323.997 209.452Z"/><path fill="#FBC439" d="M170.825 95.6223C186.499 95.8543 187.975 117.909 171.323 118.591C168.143 118.53 165.223 117.89 162.66 115.887C160.332 114.069 158.836 111.389 158.511 108.453C157.618 100.442 163.502 96.2661 170.825 95.6223Z"/><defs><linearGradient id="gradient_11" gradientUnits="userSpaceOnUse" x1="137.13075" y1="205.31979" x2="139.92685" y2="225.25127"><stop offset="0" stop-color="#57ADE5"/><stop offset="1" stop-color="#6799E8"/></linearGradient></defs><path fill="url(#gradient_11)" d="M138.242 222.739C136.057 220.828 128.244 223.115 125.361 220.347C122.416 217.521 121.687 211.078 124.712 208.103C127.959 204.91 134.625 205.9 138.871 205.912C143.489 205.926 148.172 206.148 152.845 205.959C153.007 207.561 150.681 212.666 150.086 214.783L149.734 215.202C149.109 216.076 146.889 222.852 145.741 225.099C144.302 225.172 142.334 225.22 140.924 225.392C140.148 225.131 138.459 223.627 138.242 222.739Z"/><defs><linearGradient id="gradient_12" gradientUnits="userSpaceOnUse" x1="226.14369" y1="153.42088" x2="243.20728" y2="162.07552"><stop offset="0" stop-color="#979595"/><stop offset="1" stop-color="#BD8FB1"/></linearGradient></defs><path fill="url(#gradient_12)" d="M209.76 184.022C216.469 186.526 224.807 186.893 229.473 180.076C233.986 173.482 236.637 165.037 239.905 157.791C243.206 149.712 247.913 140.981 249.897 132.466C250.322 130.645 247.82 126.395 248.732 124.815C252.909 123.665 253.786 134.86 253.063 137.264C251.082 143.855 247.843 150.341 245.113 156.677L239.19 170.46C237.367 174.717 235.766 178.236 233.492 182.274C229.685 189.035 215.761 190.064 210.059 185.855C210.055 185.193 209.903 184.666 209.76 184.022Z"/><path fill="#B08AAF" d="M107.744 138.646C110.409 138.063 110.189 145.208 109.998 146.852C109.997 149.563 109.767 150.703 110.019 153.563C108.108 157.194 106.45 157.947 102.536 159.167C98.7903 160.334 80.1525 158.548 78.4969 160.156C78.099 161.37 78.4326 163.371 78.4202 164.713C78.3496 172.368 80.2668 182.379 72.0186 186.682C69.1522 188.177 61.8865 188.6 59.0406 187.337C57.0976 186.983 55.7606 186.469 54.0378 185.555L53.8286 184.859L53.5002 184.989L53.614 184.876C55.2247 184.53 59.7415 185.566 62.1479 185.78C63.1811 185.418 64.5072 185.266 65.6051 185.041C78.7059 182.36 75.9985 167.069 76.0377 157.001C81.8293 156.842 87.6716 156.931 93.4778 156.778C99.8535 156.609 104.176 155.932 107.847 150.09C107.906 148.204 107.466 139.475 107.744 138.646Z"/><path fill="#666867" d="M107.744 138.646C110.409 138.063 110.189 145.208 109.998 146.852C109.831 147.873 109.906 148.61 108.951 149.153C107.905 147.854 109.145 141.406 107.744 138.646Z"/><path fill="#AC93AC" d="M59.0406 187.337C57.0976 186.983 55.7606 186.469 54.0378 185.555L53.8286 184.859L53.5002 184.989L53.614 184.876C55.2247 184.53 59.7415 185.566 62.1479 185.78C60.9916 186.115 59.5111 186.203 58.3247 185.992L58.0633 186.255C58.7187 186.777 58.8234 186.682 59.0406 187.337Z"/><path fill="#C571BA" d="M210.644 39.6366C212.983 41.3132 214.103 43.5847 215.136 46.1545C217.698 46.4163 220.558 46.8253 223.037 47.4777C221.553 49.5867 219.589 50.8654 218.234 53.161C216.881 55.4522 219.642 60.1361 217.095 60.9029C215.548 60.7356 213.074 59.3298 211.729 58.4911C210.048 58.0401 207.248 60.9316 205.036 60.6656C203.127 59.1371 204.023 55.7196 204.671 53.72C202.106 51.3344 201.468 50.7719 199.679 47.6531C202.243 46.6741 204.391 46.738 206.99 45.6443C208.316 43.5939 209.08 41.4017 210.644 39.6366Z"/><path fill="#C571BA" d="M158.412 54.0632C159.35 53.9626 160.294 53.9428 161.235 54.004C164.096 54.1729 170.149 56.2096 169.756 59.8351C168.082 62.1513 162.344 59.2814 160.186 58.2856C164.602 70.7609 160.776 74.2082 149.883 66.0066C150.022 69.3664 151.145 72.5686 151.3 76.4104C150.49 79.6348 147.849 81.363 144.653 81.9511C143.328 82.1948 141.281 82.1264 141.163 80.5272C140.944 77.578 146.308 78.0642 147.047 75.739C147.135 71.9671 144.499 66.4269 146.722 62.9547C148.802 59.7059 154.784 63.9088 156.674 65.2473C155.994 62.0927 154.902 55.6314 158.412 54.0632Z"/><path fill="#C571BA" d="M281.634 274.547C283.066 274.401 284.747 274.148 285.372 275.751C284.867 277.929 280.272 279.02 278.456 280.005C277.502 280.521 276.876 280.921 275.975 281.531C276.868 283.412 283.984 290.748 279.315 292.404C276.519 293.395 272.756 291.765 270.157 290.535C270.76 291.299 271.839 292.364 272.285 293.119C277.24 301.499 273.588 304.011 265.308 302.618C263.592 302.238 258.825 301.483 260.593 298.683C262.767 297.312 267.222 298.787 270.133 298.961L270.496 298.981C269.355 296.083 266.122 292.182 266.863 288.967C267.542 286.021 274.018 287.893 275.889 288.371C267.459 280.923 273.647 276.596 281.634 274.547Z"/><path fill="#C571BA" d="M206.689 298.541C209.734 299.526 210.322 301.748 212.956 302.998C214.54 303.75 217.757 302.254 219.11 302.782C220.597 303.363 217.483 308.565 217.018 309.429C218.783 312.159 219.028 312.893 219.776 316.077C217.527 316.109 213.742 315.225 212.237 315.926C210.965 317.173 208.807 319.751 207.014 319.501C205.793 318.311 205.82 315.232 205.483 313.299C198.547 309.563 197.542 308.888 205.41 305.47C205.572 303.318 206.157 300.629 206.689 298.541Z"/><path fill="#C571BA" d="M318.127 116.883C320.108 117.007 320.839 118.519 321.981 119.999C324.869 119.938 331.666 119.294 333.799 120.942C334.444 121.437 334.866 122.17 334.97 122.977C335.357 126.134 332.326 129.927 330.499 132.23C343.907 129.134 346.012 137.484 336.73 145.253C335.84 145.323 335.689 145.391 334.9 145.055C332.998 142.892 336.796 137.992 338.032 135.952C325.033 136.776 322.321 135.232 330.596 123.78C327.543 124.205 322.476 124.208 319.531 123.37C317.161 121.296 315.657 119.561 318.127 116.883Z"/><path fill="#5BA9E4" d="M138.784 278.399C139.904 278.713 139.555 278.466 140.228 279.256C140.962 281.607 138.424 286.507 137.382 288.907C137.64 288.78 137.9 288.66 138.163 288.545C146.435 284.917 154.075 283.807 147.298 295.505C149.34 294.049 152.03 292.092 154.501 291.539C162.648 289.714 160.495 301.357 157.644 305.134C157.202 305.17 156.829 305.152 156.387 305.145C153.668 303.516 155.572 297.614 156.195 294.965C154.254 296.316 151.666 298.052 149.355 298.611C141.419 300.529 143.373 293.917 146.068 289.62C142.817 291.253 133.454 295.051 133.908 287.507C134.085 284.561 136.511 280.31 138.784 278.399Z"/><path fill="#FBC439" d="M273.457 144.691L274.514 144.736C274.947 145.055 275.245 145.153 275.357 145.738C275.748 147.785 272.923 153.113 272.003 154.956C276.601 154.365 281.67 154.079 284.3 158.551C282.804 162.264 279.818 164.144 276.696 166.592C279.978 166.785 285.077 167.404 287.314 170.115C288.225 171.22 286.698 172.666 285.733 173.151C281.72 171.768 275.473 171.318 272.361 168.472C269.219 165.598 276.727 161.093 278.61 159.498C269.766 159.5 265.109 157.815 270.4 147.797C271.086 146.497 272.248 145.514 273.457 144.691Z"/><path fill="#5BA9E4" d="M258.627 53.7718C260.95 53.5861 261.658 53.7716 263.795 54.6758C264.86 57.8321 264.725 60.4032 264.721 63.6871C267.473 61.3403 274.497 55.2523 277.205 60.7803C278.466 63.3546 279.227 70.4986 275.812 71.9649C272.988 71.6242 273.372 65.0494 273.155 62.5669C271.167 63.5631 266.138 70.5583 262.41 67.8588C260.213 66.2678 260.38 60.8131 259.998 58.2172L259.741 58.0343C258.183 59.3823 252.72 64.4725 250.643 62.7605C250.178 60.7769 251.871 59.1415 252.94 57.7248C254.559 55.5779 256.164 54.6761 258.627 53.7718Z"/><path fill="#FBC439" d="M356.901 184.315C366.227 183.253 379.552 193.52 383.521 201.532C386.222 206.983 389.138 213.346 387.454 219.519C386.99 219.537 386.452 219.589 385.994 219.519C384.016 219.216 382.389 208.838 381.67 206.813C380.863 204.53 379.721 202.38 378.282 200.432C375.855 197.114 371.218 193.657 367.676 191.512C365.039 189.915 357.669 188.322 356.631 186.597C356.419 185.629 356.618 185.266 356.901 184.315Z"/><path fill="#7E7DDF" d="M304.707 81.4C307.271 82.4435 307.98 83.1336 310.066 84.9216C311.874 84.7728 314.57 84.1702 315.89 85.5219C316.282 87.1513 315.069 89.3103 314.381 90.9275C315.338 92.5179 316.468 94.1647 316.668 96.0259C315.841 97.5843 312.43 95.1777 310.305 96.3969C309.138 97.7675 307.64 100.246 305.721 99.4135C304.601 98.0998 304.64 96.0707 304.466 94.3078C302.659 93.7473 299.94 93.2408 299.706 91.1406C300.451 89.4214 302.519 88.5469 304.185 87.5776C303.901 85.5419 304.003 83.3406 304.707 81.4Z"/><path fill="#FBC439" d="M61.9298 93.3568C64.6553 93.1698 75.0079 93.0092 76.4424 95.1542C76.4779 96.8878 74.8069 97.1796 73.3626 97.3309C62.6271 98.4549 54.8758 94.6781 46.5971 103.519C44.6559 106.05 43.53 112.965 40.6384 112.247C40.2114 111.747 40.0449 111.307 40.038 110.629C39.9095 98.0059 51.2541 94.279 61.9298 93.3568Z"/><path fill="#9E9296" d="M109.781 106.046C117.268 112.342 114.963 126.972 103.628 127.328C95.2292 127.591 86.5847 127.015 78.2706 127.519C78.2857 128.967 78.3082 130.21 78.1915 131.653C78.2745 132.335 78.2423 132.527 77.7451 132.922L77.1312 132.808C76.4811 132.317 76.4515 132.304 76.1524 131.569C75.9323 129.837 75.4522 127.529 76.0861 125.956C77.3182 124.741 78.6972 124.913 80.2822 124.863C85.8395 124.686 97.9721 125.597 103.092 124.217C104.853 123.758 106.466 122.854 107.777 121.591C109.993 119.426 110.937 116.476 111.038 113.412C111.122 110.863 109.955 108.496 109.781 106.046Z"/><path fill="#666867" d="M76.1524 131.569C76.2261 130.392 76.0683 129.384 76.7828 128.428L77.218 128.438C78.1769 129.639 77.8438 130.261 78.1915 131.653C78.2745 132.335 78.2423 132.527 77.7451 132.922L77.1312 132.808C76.4811 132.317 76.4515 132.304 76.1524 131.569Z"/><path fill="#C571BA" d="M82.445 217.775C84.935 218.317 85.2054 222.463 85.7452 224.725C87.7372 233.327 93.2655 240.503 100.312 245.636C102.012 246.875 106.094 248.486 106.438 250.496C106.157 251.298 106.389 250.976 105.713 251.493C99.1743 249.523 93.79 245.614 89.5142 240.341C85.473 235.397 82.7727 229.496 81.6733 223.206C81.3323 221.339 80.6298 219.094 82.445 217.775Z"/><path fill="#7E7DDF" d="M309.868 258.056C311.816 258.49 313.218 259.893 314.423 261.365C315.702 260.81 317.683 259.987 319.059 260.082C320.727 261.098 319.122 264.221 319.939 266.379C320.466 267.771 321.334 269.027 322.088 270.296C320.157 270.717 317.802 270.579 316.293 271.119C315.078 272.23 313.575 273.908 312.43 275.139C311.602 273.088 311.238 271.87 310.655 269.755C308.866 269.112 306.879 268.843 306.331 266.842C306.705 265.247 308.061 264.687 309.475 263.786C309.553 261.76 309.61 260.075 309.868 258.056Z"/><path fill="#7E7DDF" d="M115.382 81.5332L116.632 81.4987C117.582 82.3542 117.246 84.6906 117.589 86.5959C118.806 87.6541 121.106 89.106 120.778 90.7754C119.761 91.8385 117.984 92.0132 116.481 92.3562C115.145 95.9532 114.66 98.8011 111.079 94.89C109.579 91.772 106.875 94.0516 105.418 91.9828C105.365 90.3424 106.799 88.9988 107.866 87.7418C107.249 86.1412 106.125 84.0655 107.81 82.9331C109.357 82.7888 110.287 83.4832 111.612 84.2504C113.007 83.0872 113.845 82.5121 115.382 81.5332Z"/><path fill="#EA9175" d="M40.7752 136.217C42.2563 136.089 43.7701 136.131 43.6792 137.854C43.3475 144.145 45.1915 168.681 43.5477 173.202C42.6913 173.312 41.7446 173.426 41.0303 172.984C40.3145 170.197 40.1098 139.146 40.7752 136.217Z"/><path fill="#7E7DDF" d="M102.607 254.585C104.214 254.868 105.964 256.268 107.31 257.238C109.154 256.776 110.986 256.272 112.806 255.726C112.032 257.924 110.216 260.522 111.68 262.751C112.343 263.761 113.234 265.004 112.444 265.995C111.117 266.491 109.777 266.2 108.386 265.994C107.328 267.067 106.128 269.021 104.739 269.659L104.291 269.445C103.547 268.207 103.217 266.261 102.766 264.748C101.085 264.461 99.353 264.478 99.1289 262.488C99.7142 261.005 100.891 260.605 102.291 259.91C102.176 258.006 102.095 256.43 102.607 254.585Z"/><path fill="#C571BA" d="M242.685 113.982C252.563 112.709 261.4 125.821 257.997 134.146L256.987 134.321C254.616 133.398 254.55 126.348 252.609 123.466C250.055 119.675 243.516 118.12 242.226 115.747C242.152 114.675 242.107 115.097 242.685 113.982Z"/><path fill="#FBC439" d="M342.084 158.78C343.809 158.628 345.504 159.297 346.66 160.585C348.041 162.125 348.441 164.309 347.696 166.238C346.95 168.167 345.185 169.514 343.128 169.725C340.093 170.036 337.385 167.816 337.095 164.778C336.805 161.741 339.045 159.048 342.084 158.78Z"/><path fill="#7E7DDF" d="M304.383 141.939C305.61 141.987 307.085 142.719 308.256 143.209L312.093 142.434C312.453 145.351 313.414 147.235 313.622 149.926C313.687 150.78 310.791 150.913 309.78 151.714C309.03 152.78 308.705 154.279 307.289 154.332C306.612 153.673 305.816 151.615 305.384 150.642C304.353 149.678 302.893 150.65 301.998 149.274C302.177 147.932 303.351 147.001 304.318 146.087C304.258 144.473 304.24 143.537 304.383 141.939Z"/><path fill="#B08AAF" d="M186.438 100.244L186.261 101.589C186.06 101.92 186.653 103.132 186.867 103.571C189.773 109.542 187.794 116.489 182.725 120.614C181.243 121.819 177.685 122.831 176.319 120.858C176.437 119.092 179.508 117.773 181.144 116.062C183.74 113.343 185.617 109.36 184.99 105.541C184.749 104.072 183.971 102.853 183.987 101.255C184.748 100.053 184.981 101.61 186.438 100.244Z"/><path fill="#FBC439" d="M172.84 272.077C182.398 273.231 185.355 284.578 178.176 290.559C177.348 290.741 177.172 290.852 176.423 290.564C175.184 288.653 177.968 284.56 178.668 281.098C177.097 276.659 172.389 276.04 171.933 273.262C172.222 272.333 171.991 272.654 172.84 272.077Z"/><path fill="#C571BA" d="M369.449 258.04C373.52 255.416 373.785 261.86 375.523 263.357L375.895 263.21C376.499 261.633 378.232 256.085 380.298 256.866C381.713 258.625 381.237 266.363 380.238 268.377L379.817 268.561C378.372 267.28 378.788 263.628 378.872 261.824C377.97 263.44 377.129 265.538 375.469 266.195C373.098 265.854 373.652 263.598 372.252 262.734C371.414 264.052 373.144 266.37 371.207 268.024C368.88 267.522 370.212 259.452 369.502 258.25L369.449 258.04Z"/><path fill="#FBC439" d="M236.845 304.329C239.53 303.779 242.155 305.504 242.715 308.187C243.275 310.87 241.559 313.501 238.878 314.07C236.184 314.643 233.537 312.917 232.974 310.22C232.411 307.523 234.146 304.882 236.845 304.329Z"/><path fill="#FBC439" d="M184.297 45.8189C185.973 46.0237 186.382 46.3098 187.839 47.1055C190.188 51.2812 189.507 54.6019 184.567 55.9867C178.611 55.9089 177.469 46.7801 184.297 45.8189Z"/><path fill="#FBC439" d="M236.254 46.7669C242.818 45.9406 245.854 53.3598 239.261 55.9765C236.953 56.5218 234.607 55.8381 233.533 53.5912C232.908 52.2879 232.851 50.7836 233.378 49.4373C234.01 47.8369 234.832 47.4305 236.254 46.7669Z"/><path fill="#FBC439" d="M182.83 303.404C185.442 302.96 187.928 304.693 188.416 307.297C188.905 309.901 187.216 312.416 184.62 312.949C182.901 313.302 181.125 312.701 179.975 311.375C178.825 310.05 178.479 308.207 179.071 306.554C179.663 304.902 181.1 303.698 182.83 303.404Z"/><path fill="#7E7DDF" d="M288.608 109.282C290.338 109.06 292.048 109.815 293.051 111.241C293.594 112.014 293.892 112.932 293.906 113.876C293.919 114.794 293.663 115.696 293.17 116.47C292.483 117.549 291.386 118.301 290.132 118.553C288.435 118.894 286.688 118.276 285.585 116.943C284.492 115.623 284.204 113.813 284.833 112.219C285.462 110.625 286.909 109.499 288.608 109.282Z"/><path fill="#C571BA" d="M250.248 173.563C252.111 173.41 253.099 173.609 254.901 174.011C257.035 177.405 256.958 180.614 252.715 182.099C247.11 182.699 244.205 176.131 250.248 173.563Z"/><path fill="#FBC439" d="M260.632 101.933C261.878 101.965 263.406 102.977 262.958 104.258C261.826 107.497 256.41 112.682 253.689 114.502C252.774 114.638 252.473 114.547 251.815 113.98C250.72 111.021 258.29 103.556 260.632 101.933Z"/><path fill="#F1A45E" d="M331.926 252.668C334.517 252.822 345.26 257.716 346.039 260.358C345.836 261.414 346.019 261.011 345.187 261.879C341.572 261.422 335.232 258.275 332.197 256.153C330.723 255.123 330.727 253.937 331.926 252.668Z"/><path fill="#5BA9E4" d="M240.122 282.148C242.403 282.132 244.296 283.907 244.428 286.185C244.56 288.462 242.883 290.443 240.615 290.691C239.042 290.862 237.503 290.152 236.611 288.845C235.72 287.537 235.622 285.845 236.357 284.443C237.092 283.041 238.539 282.159 240.122 282.148Z"/><path fill="#FBC439" d="M44.5083 188.024C46.7477 187.349 49.1125 188.607 49.8031 190.842C50.4938 193.077 49.2515 195.45 47.0215 196.156C44.7698 196.869 42.3682 195.612 41.6708 193.355C40.9734 191.099 42.247 188.706 44.5083 188.024Z"/><path fill="#5BA9E4" d="M188.348 68.3906C189.644 67.866 191.115 68.0138 192.281 68.7855C193.446 69.5572 194.157 70.8537 194.18 72.2515C194.209 73.9636 193.205 75.5249 191.635 76.2095C190.234 76.8207 188.612 76.6304 187.39 75.7116C186.169 74.7928 185.536 73.2876 185.734 71.7718C185.932 70.256 186.931 68.9642 188.348 68.3906Z"/><path fill="#7E7DDF" d="M225.884 95.7382C226.856 95.7185 226.904 95.6808 227.454 96.1823C228.28 98.7747 222.221 108.383 220.171 110.12C219.502 110.035 219.39 109.925 218.823 109.59C216.882 106.847 223.563 97.3655 225.884 95.7382Z"/><path fill="#C571BA" fill-opacity="0.98039216" d="M113.784 219.064C111.483 213.715 111.635 204.573 116.622 200.733C119.19 198.756 120.377 198.499 123.518 198.787L123.761 199.261C119.116 201.935 116.334 204.436 114.747 209.85C114.001 212.393 114.063 216.666 114.887 219.135L113.784 219.064Z"/><path fill="#5BA9E4" d="M201.344 262.412C202.715 262.402 203.506 262.811 204.313 263.971C206.353 266.904 210.078 274.254 209.216 277.71C208.028 277.471 207.315 277.033 206.624 276.04C204.718 273.301 199.978 265.604 201.344 262.412Z"/><path fill="#5BA9E4" d="M370.566 162.957C371.021 162.978 370.928 163.008 371.378 163.229C372.467 166.443 364.761 175.111 361.997 176.619C361.185 175.919 360.471 175.032 360.96 173.938C362.396 170.726 367.634 164.504 370.566 162.957Z"/><path fill="#C571BA" d="M143.104 247.559C143.557 248.464 144.026 249.092 143.846 250.037C142.126 249.958 139.935 250.897 138.237 251.203C132.99 252.148 124.824 252.3 119.669 250.947C121.53 250.313 122.117 250.242 124.009 250.094L123.986 249.784C127.208 249.557 129.667 249.866 133.361 249.395C137.047 248.925 139.651 248.098 143.104 247.559Z"/><path fill="#454142" d="M208.226 124.843C212.375 126.441 217.066 142.218 218.095 146.986C217.714 146.837 217.048 146.548 216.823 146.246C214.966 143.752 208.234 126.724 208.226 124.843Z"/><path fill="#5BA9E4" d="M317.298 176.045C319.033 176.363 320.731 176.792 321.185 178.708C321.91 181.764 320.019 182.719 317.75 183.3C313.354 183.084 311.68 177.599 317.298 176.045Z"/><path fill="#C571BA" d="M290.288 70.8258C292.176 70.1085 294.287 71.0593 295.001 72.948C295.715 74.8367 294.76 76.9462 292.87 77.6565C290.985 78.365 288.882 77.4134 288.17 75.5296C287.458 73.6458 288.406 71.5412 290.288 70.8258Z"/><path fill="#FBC439" d="M322.5 102.849C324.404 102.279 326.412 103.351 326.997 105.25C327.583 107.149 326.527 109.166 324.633 109.767C322.716 110.375 320.671 109.304 320.079 107.383C319.487 105.461 320.574 103.425 322.5 102.849Z"/><path fill="#7E7DDF" d="M382.313 179.663L382.75 179.893C383.247 180.633 383.62 184.182 383.794 185.346C383.3 186.297 381.251 186.055 380.357 186.573C379.536 187.048 379.299 187.685 378.232 188.385C377.646 187.309 377.806 186.182 377.214 184.788C376.783 183.771 375.911 182.603 376.132 181.756C377.023 181.274 378.044 181.449 379.105 181.49C380.012 180.886 381.333 180.203 382.313 179.663Z"/><path fill="#FBC439" d="M147.949 96.6585C151.16 96.8486 158.559 98.5581 154.928 103.124C151.818 103.447 144.885 101.231 147.949 96.6585Z"/><path fill="#5BA9E4" d="M127.566 72.0498C129.416 71.7418 131.185 72.9304 131.6 74.7599C132.014 76.5893 130.93 78.4244 129.127 78.9439C127.865 79.3077 126.505 78.9425 125.595 77.9954C124.684 77.0483 124.373 75.675 124.787 74.428C125.2 73.181 126.27 72.2655 127.566 72.0498Z"/><path fill="#F1A45E" d="M243.55 72.7906C248.739 72.4646 249.639 77.2089 245.497 79.4508C243.523 79.5405 241.898 79.0604 241.116 76.9884C240.8 76.1753 240.842 75.2666 241.231 74.486C241.776 73.4007 242.472 73.1916 243.55 72.7906Z"/><path fill="#C571BA" d="M120.971 273.301C123.733 273.91 123.806 274.292 124.55 277.002C123.744 279.449 123.68 279.753 121.11 280.17C115.942 279.268 116.143 274.299 120.971 273.301Z"/><path fill="#5BA9E4" d="M265.994 260.262C270.865 261.022 272.166 265.537 267.276 267.033C261.811 267.032 261.885 261.572 265.994 260.262Z"/><path fill="#FBC439" d="M183.47 85.9849C189.47 87.5333 184.357 92.2096 181.938 94.3728C180.579 94.6091 180.415 94.7794 179.536 93.7848C178.741 90.9827 181.263 87.5424 183.47 85.9849Z"/><path fill="#FBC439" d="M156.514 86.1762C156.828 86.204 157.14 86.2499 157.449 86.3136C161.309 87.1233 163.108 90.9236 162.138 94.5526C157.405 94.3563 154.813 90.4303 156.514 86.1762Z"/><path fill="#FBC439" d="M170.199 82.4596C170.67 82.5596 171.864 82.7893 172.193 83.0907C174.626 85.3158 173.495 89.4039 171.827 91.6943C168.236 91.9441 168.362 87.5153 168.708 84.984C168.91 83.5032 169.04 83.2962 170.199 82.4596Z"/><path fill="#7E7DDF" d="M295.078 279.099C296.808 278.51 298.691 279.417 299.311 281.136C299.931 282.856 299.06 284.755 297.352 285.407C296.219 285.839 294.941 285.626 294.009 284.849C293.078 284.073 292.638 282.853 292.86 281.661C293.081 280.469 293.929 279.489 295.078 279.099Z"/><path fill="#FBC439" d="M186.438 100.244C187.104 97.8808 193.004 95.6687 194.708 98.1808C194.82 100.826 190.653 102.9 188.316 103.029C187.625 103.067 186.711 102.064 186.261 101.589L186.438 100.244Z"/><path fill="#FBC439" d="M79.5985 87.0031C80.8086 87.1368 81.8232 87.6022 82.9575 88.0445C84.3629 90.5958 84.3091 91.5002 81.6471 93.0332C77.2156 94.5093 76.367 88.8729 79.5985 87.0031Z"/><path fill="#8682AE" d="M119.669 250.947C116.172 250.583 104.319 246.596 103.111 243.629C104.025 243.149 105.907 244.452 106.911 245.012C112.875 248.337 117.638 248.696 123.986 249.784L124.009 250.094C122.117 250.242 121.53 250.313 119.669 250.947Z"/><path fill="#B08AAF" d="M363.049 261.226C363.023 258.434 361.584 259.78 359.863 258.746C359.593 257.97 359.57 258.333 359.875 257.618C361.606 256.579 367.974 256.513 369.449 258.04L369.502 258.25C368.03 259.537 367.136 259.307 365.129 259.346L364.955 263.814C364.811 262.9 364.796 262.751 364.45 261.906C363.891 261.377 363.83 261.393 363.049 261.226Z"/><path fill="#C571BA" d="M75.4283 205.699C76.3598 205.313 77.4286 205.48 78.1978 206.132C78.9669 206.784 79.3073 207.811 79.0799 208.793C78.8524 209.775 78.0952 210.548 77.1179 210.795C75.75 211.141 74.3469 210.372 73.9029 209.033C73.4588 207.693 74.1245 206.238 75.4283 205.699Z"/><path fill="#C571BA" d="M148.285 155.318C149.697 155.159 150.985 156.135 151.213 157.537C151.44 158.94 150.528 160.274 149.138 160.57C148.177 160.774 147.181 160.433 146.548 159.682C145.914 158.931 145.746 157.892 146.109 156.979C146.472 156.066 147.309 155.428 148.285 155.318Z"/><path fill="#7CAEBB" d="M35.3317 94.0658C35.7489 94.0372 36.7679 93.9313 37.1475 93.9997C39.8798 94.4921 39.925 96.9329 38.0076 98.4247C34.6395 98.7421 32.7465 96.4954 35.3317 94.0658Z"/><path fill="#C571BA" d="M34.922 131.846C36.1233 131.406 37.4549 132.014 37.9105 133.209C38.3661 134.404 37.7766 135.744 36.5875 136.215C35.804 136.526 34.914 136.391 34.258 135.862C33.6019 135.333 33.2813 134.492 33.4188 133.66C33.5562 132.829 34.1305 132.136 34.922 131.846Z"/><path fill="#5BA9E4" d="M89.5659 248.907C90.6728 248.567 91.8473 249.18 92.2014 250.282C92.5555 251.385 91.9575 252.567 90.8597 252.935C90.1369 253.177 89.3397 253.012 88.7728 252.503C88.2059 251.993 87.9569 251.218 88.1211 250.473C88.2853 249.729 88.8372 249.131 89.5659 248.907Z"/><path fill="#AC93AC" d="M363.049 261.226C363.83 261.393 363.891 261.377 364.45 261.906C364.796 262.751 364.811 262.9 364.955 263.814C364.969 264.842 365.126 267.381 364.205 268.021C363.224 266.682 363.278 263.095 363.049 261.226Z"/><path fill="#FEFEFE" fill-opacity="0.054901961" d="M123.139 185.179C122.304 185.049 122.258 185.018 121.495 184.628L121.518 184.348C123.139 183.854 125.137 184.271 126.957 183.944C128.387 183.686 129.625 182.628 130.749 182.607L130.92 182.903C127.714 185.243 126.979 184.98 123.139 185.179Z"/><path fill="#3C2878" d="M127.067 224.284C128.894 224.644 132.708 224.887 133.861 225.217L134.169 225.916C132.413 225.997 127.547 226.505 127.067 224.284Z"/><path fill="#FEFEFE" fill-opacity="0.41960785" d="M142.733 142.971C143.988 143.132 146.682 141.962 149.608 141.995C148.23 142.289 146.612 142.593 145.275 142.97C147.229 143.158 148.628 143.235 150.586 143.278L150.523 143.513C147.751 143.451 144.89 143.129 142.274 143.991L141.937 144.102L142.779 143.375L142.733 142.971Z"/><path fill="#FEFEFE" fill-opacity="0.054901961" d="M142.733 142.971L142.779 143.375L141.937 144.102C140.901 144.349 139.103 145.785 138.163 146.429L137.977 146.067C138.364 144.054 140.931 143.216 142.733 142.971Z"/><path fill="#060007" fill-opacity="0.039215688" d="M167.975 120.303C169.744 120.387 172.878 120.134 174.454 120.452L174.23 120.74L173.283 120.817C171.935 120.858 167.998 121.155 167.107 120.852L167.975 120.303Z"/><path fill="#5E456B" d="M113.784 219.064L114.887 219.135C115.159 219.836 115.918 221.547 115.808 222.181L115.595 222.177L115.763 222.346L115.718 221.776L115.314 221.761C114.759 220.875 114.193 220.028 113.784 219.064Z"/><path fill="#9E9296" fill-opacity="0.98431373" d="M210.059 185.855C209.366 185.369 208.861 185.125 208.497 184.371L208.724 184.075L209.76 184.022C209.903 184.666 210.055 185.193 210.059 185.855Z"/><path fill="#060007" fill-opacity="0.043137256" d="M191.547 120.63C193.505 120.395 194.716 120.483 196.642 120.625L191.687 121.062L191.547 120.63Z"/></svg>